<svg width="200" height="54" viewBox="0 0 200 54" fill="none" xmlns="http://www.w3.org/2000/svg">
<g clip-path="url(#clip0_1123_182)">
<path d="M0 54L0.0142151 21.7536L62 0L61.9861 32.2464L0 54ZM1.37655 22.7069V52.0901L60.6362 31.2934V1.91014L1.37655 22.7069ZM4.44643 25.0082V47.6447L12.8154 44.7008V22.0674L4.44643 25.0082V25.0082ZM57.5692 6.37308L49.31 9.27562V31.9116L57.5692 29.0096V6.37308V6.37308ZM28.5472 16.5406L20.2754 19.4469V27.5007L28.5472 37.8812V16.5406ZM47.8536 9.77239L39.5819 12.6787V20.7325L47.8536 31.113V9.77239ZM14.2717 35.7207L19.5536 42.3361L27.8718 39.4135L14.2717 22.4341V35.7207V35.7207ZM29.9809 16.03V24.499L33.248 28.5361L29.9809 29.6893V35.6544L36.9648 33.2006L38.8366 35.5452L47.2137 32.6163L33.0789 14.9434L29.9809 16.03V16.03Z" fill="#FFF123"/>
</g>
<path d="M92.9004 12.7812V27H89.7266L84.3555 17.8105V27H81.1719V12.7812H84.3555L89.7363 21.9707V12.7812H92.9004ZM100.693 24.4805V19.9492C100.693 19.6302 100.645 19.3568 100.547 19.1289C100.449 18.901 100.296 18.722 100.088 18.5918C99.8796 18.4616 99.6094 18.3965 99.2773 18.3965C98.9974 18.3965 98.7533 18.4453 98.5449 18.543C98.3431 18.6406 98.1868 18.7806 98.0762 18.9629C97.972 19.1452 97.9199 19.3698 97.9199 19.6367H94.873C94.873 19.1615 94.9805 18.7188 95.1953 18.3086C95.4102 17.8984 95.7161 17.5371 96.1133 17.2246C96.5169 16.9121 96.9987 16.6712 97.5586 16.502C98.1185 16.3262 98.7467 16.2383 99.4434 16.2383C100.27 16.2383 101.006 16.3783 101.65 16.6582C102.301 16.9316 102.816 17.3451 103.193 17.8984C103.571 18.4453 103.76 19.1354 103.76 19.9688V24.3926C103.76 25.0306 103.796 25.5319 103.867 25.8965C103.945 26.2546 104.056 26.5671 104.199 26.834V27H101.123C100.98 26.694 100.872 26.3164 100.801 25.8672C100.729 25.4115 100.693 24.9492 100.693 24.4805ZM101.074 20.5547L101.094 22.2344H99.5801C99.2415 22.2344 98.9486 22.2767 98.7012 22.3613C98.4603 22.446 98.265 22.5632 98.1152 22.7129C97.9655 22.8561 97.8548 23.0254 97.7832 23.2207C97.7181 23.4095 97.6855 23.6178 97.6855 23.8457C97.6855 24.0605 97.7376 24.2559 97.8418 24.4316C97.946 24.6009 98.0892 24.7344 98.2715 24.832C98.4538 24.9297 98.6654 24.9785 98.9062 24.9785C99.3034 24.9785 99.6419 24.9004 99.9219 24.7441C100.208 24.5879 100.43 24.3991 100.586 24.1777C100.742 23.9499 100.82 23.7383 100.82 23.543L101.553 24.8125C101.436 25.0729 101.292 25.3431 101.123 25.623C100.954 25.8965 100.739 26.1536 100.479 26.3945C100.218 26.6289 99.9023 26.821 99.5312 26.9707C99.1667 27.1204 98.7272 27.1953 98.2129 27.1953C97.5488 27.1953 96.9466 27.0618 96.4062 26.7949C95.8659 26.5215 95.4329 26.1471 95.1074 25.6719C94.7884 25.1966 94.6289 24.6497 94.6289 24.0312C94.6289 23.4779 94.7298 22.9863 94.9316 22.5566C95.1335 22.127 95.4362 21.7624 95.8398 21.4629C96.25 21.1634 96.7643 20.9388 97.3828 20.7891C98.0013 20.6328 98.724 20.5547 99.5508 20.5547H101.074ZM109.307 24.8418L111.514 16.4336H114.717L111.211 27H109.287L109.307 24.8418ZM107.881 16.4336L110.078 24.8516L110.098 27H108.174L104.668 16.4336H107.881ZM119.053 16.4336V27H115.996V16.4336H119.053ZM115.811 13.6992C115.811 13.2565 115.967 12.8952 116.279 12.6152C116.592 12.3288 117.002 12.1855 117.51 12.1855C118.018 12.1855 118.428 12.3288 118.74 12.6152C119.059 12.8952 119.219 13.2565 119.219 13.6992C119.219 14.1354 119.059 14.4967 118.74 14.7832C118.428 15.0632 118.018 15.2031 117.51 15.2031C117.002 15.2031 116.592 15.0632 116.279 14.7832C115.967 14.4967 115.811 14.1354 115.811 13.6992ZM131.641 23.8457L134.805 12.7812H138.35L133.477 27H131.162L131.641 23.8457ZM128.76 12.7812L131.914 23.8457L132.412 27H130.068L125.225 12.7812H128.76ZM142.588 16.4336V27H139.531V16.4336H142.588ZM139.346 13.6992C139.346 13.2565 139.502 12.8952 139.814 12.6152C140.127 12.3288 140.537 12.1855 141.045 12.1855C141.553 12.1855 141.963 12.3288 142.275 12.6152C142.594 12.8952 142.754 13.2565 142.754 13.6992C142.754 14.1354 142.594 14.4967 142.275 14.7832C141.963 15.0632 141.553 15.2031 141.045 15.2031C140.537 15.2031 140.127 15.0632 139.814 14.7832C139.502 14.4967 139.346 14.1354 139.346 13.6992ZM147.773 18.6895V27H144.717V16.4336H147.588L147.773 18.6895ZM147.373 21.3457L146.611 21.3652C146.611 20.571 146.709 19.8581 146.904 19.2266C147.1 18.5951 147.376 18.0579 147.734 17.6152C148.099 17.166 148.532 16.8242 149.033 16.5898C149.541 16.3555 150.101 16.2383 150.713 16.2383C151.208 16.2383 151.66 16.3099 152.07 16.4531C152.48 16.5964 152.832 16.8275 153.125 17.1465C153.424 17.459 153.652 17.8757 153.809 18.3965C153.965 18.9108 154.043 19.5456 154.043 20.3008V27H150.977V20.291C150.977 19.8483 150.915 19.5065 150.791 19.2656C150.667 19.0247 150.485 18.8555 150.244 18.7578C150.01 18.6602 149.723 18.6113 149.385 18.6113C149.027 18.6113 148.721 18.6829 148.467 18.8262C148.213 18.9629 148.005 19.1549 147.842 19.4023C147.679 19.6497 147.559 19.9395 147.48 20.2715C147.409 20.6035 147.373 20.9616 147.373 21.3457ZM160.449 24.8223C160.775 24.8223 161.058 24.7604 161.299 24.6367C161.54 24.513 161.725 24.3405 161.855 24.1191C161.992 23.8913 162.061 23.6178 162.061 23.2988H164.932C164.932 24.0671 164.733 24.7441 164.336 25.3301C163.945 25.916 163.418 26.375 162.754 26.707C162.09 27.0326 161.341 27.1953 160.508 27.1953C159.688 27.1953 158.971 27.0618 158.359 26.7949C157.747 26.5215 157.236 26.1406 156.826 25.6523C156.416 25.1641 156.107 24.5977 155.898 23.9531C155.697 23.3021 155.596 22.599 155.596 21.8438V21.5898C155.596 20.8411 155.697 20.1413 155.898 19.4902C156.107 18.8392 156.416 18.2695 156.826 17.7812C157.236 17.293 157.744 16.9154 158.35 16.6484C158.962 16.375 159.678 16.2383 160.498 16.2383C161.364 16.2383 162.129 16.4043 162.793 16.7363C163.464 17.0684 163.988 17.5469 164.365 18.1719C164.743 18.7904 164.932 19.5358 164.932 20.4082H162.061C162.061 20.0697 161.999 19.7669 161.875 19.5C161.758 19.2266 161.576 19.0117 161.328 18.8555C161.087 18.6927 160.788 18.6113 160.43 18.6113C160.059 18.6113 159.753 18.6927 159.512 18.8555C159.277 19.0117 159.098 19.2298 158.975 19.5098C158.851 19.7897 158.766 20.1087 158.721 20.4668C158.675 20.8184 158.652 21.1927 158.652 21.5898V21.8438C158.652 22.2474 158.675 22.6315 158.721 22.9961C158.766 23.3542 158.851 23.6699 158.975 23.9434C159.105 24.2168 159.287 24.4316 159.521 24.5879C159.756 24.7441 160.065 24.8223 160.449 24.8223ZM171.426 27.1953C170.586 27.1953 169.834 27.0618 169.17 26.7949C168.506 26.528 167.943 26.1602 167.48 25.6914C167.025 25.2161 166.676 24.6693 166.436 24.0508C166.195 23.4323 166.074 22.7715 166.074 22.0684V21.6973C166.074 20.9095 166.185 20.1836 166.406 19.5195C166.628 18.8555 166.95 18.2793 167.373 17.791C167.803 17.2962 168.33 16.9154 168.955 16.6484C169.58 16.375 170.293 16.2383 171.094 16.2383C171.842 16.2383 172.51 16.362 173.096 16.6094C173.682 16.8503 174.176 17.1986 174.58 17.6543C174.984 18.1035 175.29 18.6471 175.498 19.2852C175.713 19.9167 175.82 20.6263 175.82 21.4141V22.6641H167.305V20.7012H172.832V20.4668C172.832 20.0957 172.764 19.7702 172.627 19.4902C172.497 19.2103 172.301 18.9954 172.041 18.8457C171.787 18.6895 171.465 18.6113 171.074 18.6113C170.703 18.6113 170.394 18.6895 170.146 18.8457C169.899 19.002 169.701 19.2233 169.551 19.5098C169.408 19.7897 169.303 20.1185 169.238 20.4961C169.173 20.8672 169.141 21.2676 169.141 21.6973V22.0684C169.141 22.4785 169.196 22.8529 169.307 23.1914C169.417 23.5299 169.58 23.8197 169.795 24.0605C170.01 24.3014 170.27 24.4902 170.576 24.627C170.882 24.7637 171.23 24.832 171.621 24.832C172.103 24.832 172.562 24.7409 172.998 24.5586C173.434 24.3698 173.812 24.0768 174.131 23.6797L175.557 25.3105C175.342 25.623 175.039 25.9258 174.648 26.2188C174.264 26.5052 173.802 26.7396 173.262 26.9219C172.721 27.1042 172.109 27.1953 171.426 27.1953ZM180.361 18.8945V27H177.314V16.4336H180.176L180.361 18.8945ZM183.516 16.3555L183.467 19.1973C183.337 19.1777 183.167 19.1615 182.959 19.1484C182.751 19.1289 182.572 19.1191 182.422 19.1191C182.031 19.1191 181.693 19.168 181.406 19.2656C181.126 19.3568 180.892 19.4935 180.703 19.6758C180.521 19.8581 180.384 20.0859 180.293 20.3594C180.202 20.6263 180.156 20.9355 180.156 21.2871L179.58 21.0039C179.58 20.3073 179.648 19.6693 179.785 19.0898C179.922 18.5104 180.12 18.0091 180.381 17.5859C180.641 17.1562 180.96 16.8242 181.338 16.5898C181.715 16.3555 182.145 16.2383 182.627 16.2383C182.783 16.2383 182.943 16.248 183.105 16.2676C183.268 16.2871 183.405 16.3164 183.516 16.3555ZM189.551 27.1953C188.711 27.1953 187.959 27.0618 187.295 26.7949C186.631 26.528 186.068 26.1602 185.605 25.6914C185.15 25.2161 184.801 24.6693 184.561 24.0508C184.32 23.4323 184.199 22.7715 184.199 22.0684V21.6973C184.199 20.9095 184.31 20.1836 184.531 19.5195C184.753 18.8555 185.075 18.2793 185.498 17.791C185.928 17.2962 186.455 16.9154 187.08 16.6484C187.705 16.375 188.418 16.2383 189.219 16.2383C189.967 16.2383 190.635 16.362 191.221 16.6094C191.807 16.8503 192.301 17.1986 192.705 17.6543C193.109 18.1035 193.415 18.6471 193.623 19.2852C193.838 19.9167 193.945 20.6263 193.945 21.4141V22.6641H185.43V20.7012H190.957V20.4668C190.957 20.0957 190.889 19.7702 190.752 19.4902C190.622 19.2103 190.426 18.9954 190.166 18.8457C189.912 18.6895 189.59 18.6113 189.199 18.6113C188.828 18.6113 188.519 18.6895 188.271 18.8457C188.024 19.002 187.826 19.2233 187.676 19.5098C187.533 19.7897 187.428 20.1185 187.363 20.4961C187.298 20.8672 187.266 21.2676 187.266 21.6973V22.0684C187.266 22.4785 187.321 22.8529 187.432 23.1914C187.542 23.5299 187.705 23.8197 187.92 24.0605C188.135 24.3014 188.395 24.4902 188.701 24.627C189.007 24.7637 189.355 24.832 189.746 24.832C190.228 24.832 190.687 24.7409 191.123 24.5586C191.559 24.3698 191.937 24.0768 192.256 23.6797L193.682 25.3105C193.467 25.623 193.164 25.9258 192.773 26.2188C192.389 26.5052 191.927 26.7396 191.387 26.9219C190.846 27.1042 190.234 27.1953 189.551 27.1953Z" fill="white"/>
<path d="M86.248 44.4365C86.248 44.2314 86.2161 44.0492 86.1523 43.8896C86.0931 43.7301 85.986 43.5843 85.8311 43.4521C85.6761 43.32 85.4574 43.1924 85.1748 43.0693C84.8968 42.9417 84.5413 42.8118 84.1084 42.6797C83.6344 42.5339 83.1969 42.3721 82.7959 42.1943C82.3994 42.012 82.0531 41.8024 81.7568 41.5654C81.4606 41.3239 81.2305 41.0482 81.0664 40.7383C80.9023 40.4238 80.8203 40.0615 80.8203 39.6514C80.8203 39.2458 80.9046 38.8766 81.0732 38.5439C81.2464 38.2113 81.4902 37.9242 81.8047 37.6826C82.1237 37.4365 82.4997 37.2474 82.9326 37.1152C83.3656 36.9785 83.8441 36.9102 84.3682 36.9102C85.1064 36.9102 85.7422 37.0469 86.2754 37.3203C86.8132 37.5938 87.2256 37.9606 87.5127 38.4209C87.8044 38.8812 87.9502 39.3893 87.9502 39.9453H86.248C86.248 39.6172 86.1774 39.3278 86.0361 39.0771C85.8994 38.8219 85.6898 38.6214 85.4072 38.4756C85.1292 38.3298 84.776 38.2568 84.3477 38.2568C83.9421 38.2568 83.6048 38.3184 83.3359 38.4414C83.0671 38.5645 82.8665 38.7308 82.7344 38.9404C82.6022 39.1501 82.5361 39.387 82.5361 39.6514C82.5361 39.8382 82.5794 40.0091 82.666 40.1641C82.7526 40.3145 82.8848 40.4557 83.0625 40.5879C83.2402 40.7155 83.4635 40.8363 83.7324 40.9502C84.0013 41.0641 84.318 41.1735 84.6826 41.2783C85.234 41.4424 85.7148 41.6247 86.125 41.8252C86.5352 42.0212 86.877 42.2445 87.1504 42.4951C87.4238 42.7458 87.6289 43.0306 87.7656 43.3496C87.9023 43.6641 87.9707 44.0218 87.9707 44.4229C87.9707 44.8421 87.8864 45.2204 87.7178 45.5576C87.5492 45.8903 87.3076 46.1751 86.9932 46.4121C86.6833 46.6445 86.3096 46.8245 85.8721 46.9521C85.4391 47.0752 84.9561 47.1367 84.4229 47.1367C83.9443 47.1367 83.4727 47.0729 83.0078 46.9453C82.5475 46.8177 82.1283 46.624 81.75 46.3643C81.3717 46.0999 81.071 45.7718 80.8477 45.3799C80.6243 44.9834 80.5127 44.5208 80.5127 43.9922H82.2285C82.2285 44.3158 82.2832 44.5915 82.3926 44.8193C82.5065 45.0472 82.6637 45.234 82.8643 45.3799C83.0648 45.5212 83.2972 45.626 83.5615 45.6943C83.8304 45.7627 84.1175 45.7969 84.4229 45.7969C84.8239 45.7969 85.1589 45.7399 85.4277 45.626C85.7012 45.512 85.9062 45.3525 86.043 45.1475C86.1797 44.9424 86.248 44.7054 86.248 44.4365ZM90.9512 36.5V47H89.3105V36.5H90.9512ZM90.6641 43.0283L90.1309 43.0215C90.1354 42.5111 90.2061 42.0394 90.3428 41.6064C90.484 41.1735 90.68 40.7975 90.9307 40.4785C91.1859 40.1549 91.4912 39.9066 91.8467 39.7334C92.2021 39.5557 92.5964 39.4668 93.0293 39.4668C93.3939 39.4668 93.722 39.5169 94.0137 39.6172C94.3099 39.7174 94.5651 39.8792 94.7793 40.1025C94.9935 40.3213 95.1553 40.6084 95.2646 40.9639C95.3786 41.3148 95.4355 41.7432 95.4355 42.249V47H93.7812V42.2354C93.7812 41.8799 93.7288 41.5973 93.624 41.3877C93.5238 41.1781 93.3757 41.0277 93.1797 40.9365C92.9837 40.8408 92.7445 40.793 92.4619 40.793C92.1657 40.793 91.9036 40.8522 91.6758 40.9707C91.4525 41.0892 91.2656 41.251 91.1152 41.4561C90.9648 41.6611 90.8509 41.8981 90.7734 42.167C90.7005 42.4359 90.6641 42.723 90.6641 43.0283ZM96.7891 43.3838V43.2266C96.7891 42.6934 96.8665 42.1989 97.0215 41.7432C97.1764 41.2829 97.3997 40.8841 97.6914 40.5469C97.9876 40.2051 98.3477 39.9408 98.7715 39.7539C99.1999 39.5625 99.6829 39.4668 100.221 39.4668C100.763 39.4668 101.246 39.5625 101.67 39.7539C102.098 39.9408 102.461 40.2051 102.757 40.5469C103.053 40.8841 103.279 41.2829 103.434 41.7432C103.589 42.1989 103.666 42.6934 103.666 43.2266V43.3838C103.666 43.917 103.589 44.4115 103.434 44.8672C103.279 45.3229 103.053 45.7217 102.757 46.0635C102.461 46.4007 102.101 46.665 101.677 46.8564C101.253 47.0433 100.772 47.1367 100.234 47.1367C99.6921 47.1367 99.2067 47.0433 98.7783 46.8564C98.3545 46.665 97.9945 46.4007 97.6982 46.0635C97.402 45.7217 97.1764 45.3229 97.0215 44.8672C96.8665 44.4115 96.7891 43.917 96.7891 43.3838ZM98.4365 43.2266V43.3838C98.4365 43.7165 98.4707 44.0309 98.5391 44.3271C98.6074 44.6234 98.7145 44.8831 98.8604 45.1064C99.0062 45.3298 99.193 45.5052 99.4209 45.6328C99.6488 45.7604 99.9199 45.8242 100.234 45.8242C100.54 45.8242 100.804 45.7604 101.027 45.6328C101.255 45.5052 101.442 45.3298 101.588 45.1064C101.734 44.8831 101.841 44.6234 101.909 44.3271C101.982 44.0309 102.019 43.7165 102.019 43.3838V43.2266C102.019 42.8984 101.982 42.5885 101.909 42.2969C101.841 42.0007 101.731 41.7386 101.581 41.5107C101.435 41.2829 101.248 41.1051 101.021 40.9775C100.797 40.8454 100.531 40.7793 100.221 40.7793C99.9108 40.7793 99.6419 40.8454 99.4141 40.9775C99.1908 41.1051 99.0062 41.2829 98.8604 41.5107C98.7145 41.7386 98.6074 42.0007 98.5391 42.2969C98.4707 42.5885 98.4365 42.8984 98.4365 43.2266ZM106.701 41.0254V49.8438H105.054V39.6035H106.571L106.701 41.0254ZM111.521 43.2334V43.377C111.521 43.9147 111.457 44.4137 111.329 44.874C111.206 45.3298 111.021 45.7285 110.775 46.0703C110.534 46.4076 110.235 46.6696 109.88 46.8564C109.524 47.0433 109.114 47.1367 108.649 47.1367C108.189 47.1367 107.786 47.0524 107.439 46.8838C107.098 46.7106 106.808 46.4668 106.571 46.1523C106.334 45.8379 106.143 45.4688 105.997 45.0449C105.856 44.6165 105.756 44.1471 105.696 43.6367V43.083C105.756 42.5407 105.856 42.0485 105.997 41.6064C106.143 41.1644 106.334 40.7839 106.571 40.4648C106.808 40.1458 107.098 39.8997 107.439 39.7266C107.781 39.5534 108.18 39.4668 108.636 39.4668C109.101 39.4668 109.513 39.5579 109.873 39.7402C110.233 39.918 110.536 40.1732 110.782 40.5059C111.028 40.834 111.213 41.2305 111.336 41.6953C111.459 42.1556 111.521 42.6683 111.521 43.2334ZM109.873 43.377V43.2334C109.873 42.8916 109.841 42.5749 109.777 42.2832C109.714 41.987 109.613 41.7272 109.477 41.5039C109.34 41.2806 109.164 41.1074 108.95 40.9844C108.741 40.8568 108.488 40.793 108.191 40.793C107.9 40.793 107.649 40.8431 107.439 40.9434C107.23 41.0391 107.054 41.1735 106.913 41.3467C106.772 41.5199 106.662 41.7227 106.585 41.9551C106.507 42.1829 106.453 42.4313 106.421 42.7002V44.0264C106.476 44.3545 106.569 44.6553 106.701 44.9287C106.833 45.2021 107.02 45.4209 107.262 45.585C107.508 45.7445 107.822 45.8242 108.205 45.8242C108.501 45.8242 108.754 45.7604 108.964 45.6328C109.174 45.5052 109.344 45.3298 109.477 45.1064C109.613 44.8786 109.714 44.6165 109.777 44.3203C109.841 44.0241 109.873 43.7096 109.873 43.377Z" fill="#777777"/>
<defs>
<clipPath id="clip0_1123_182">
<rect width="62" height="54" fill="white"/>
</clipPath>
</defs>
</svg>

